HIERARCHY
ROOT hip
{
  OFFSET -142.492 82.4629 9.81461
  CHANNELS 6 Xposition Yposition Zposition Zrotation Xrotation Yrotation
  JOINT abdomen
  {
    OFFSET 0 20.6881 -0.73152
    CHANNELS 3 Zrotation Xrotation Yrotation
    JOINT chest
    {
      OFFSET 0 11.7043 -0.48768
      CHANNELS 3 Zrotation Xrotation Yrotation
      JOINT neck
      {
        OFFSET 0 22.1894 -2.19456
        CHANNELS 3 Zrotation Xrotation Yrotation
        JOINT head
        {
          OFFSET -0.24384 7.07133 1.2192
          CHANNELS 3 Zrotation Xrotation Yrotation
          JOINT leftEye
          {
            OFFSET 4.14528 8.04674 8.04672
            CHANNELS 3 Zrotation Xrotation Yrotation
            End Site
            {
              OFFSET 1 0 0
            }
          }
          JOINT rightEye
          {
            OFFSET -3.6576 8.04674 8.04672
            CHANNELS 3 Zrotation Xrotation Yrotation
            End Site
            {
              OFFSET 1 0 0
            }
          }
        }
      }
      JOINT rCollar
      {
        OFFSET -2.68224 19.2634 -4.8768
        CHANNELS 3 Zrotation Xrotation Yrotation
        JOINT rShldr
        {
          OFFSET -8.77824 -1.95073 1.46304
          CHANNELS 3 Zrotation Xrotation Yrotation
          JOINT rForeArm
          {
            OFFSET -28.1742 -1.7115 0.48768
            CHANNELS 3 Zrotation Xrotation Yrotation
            JOINT rHand
            {
              OFFSET -22.5879 0.773209 7.07136
              CHANNELS 3 Zrotation Xrotation Yrotation
              JOINT rThumb1
              {
                OFFSET -1.2192 -0.487915 3.41376
                CHANNELS 3 Zrotation Xrotation Yrotation
                JOINT rThumb2
                {
                  OFFSET -3.37035 -0.52449 3.41376
                  CHANNELS 3 Zrotation Xrotation Yrotation
                  End Site
                  {
                    OFFSET -1.78271 -1.18214 1.43049
                  }
                }
              }
              JOINT rIndex1
              {
                OFFSET -7.75947 0.938293 5.60832
                CHANNELS 3 Zrotation Xrotation Yrotation
                JOINT rIndex2
                {
                  OFFSET -2.54057 -0.884171 1.56538
                  CHANNELS 3 Zrotation Xrotation Yrotation
                  End Site
                  {
                    OFFSET -1.62519 -0.234802 1.16502
                  }
                }
              }
              JOINT rMid1
              {
                OFFSET -8.24714 1.18213 3.41376
                CHANNELS 3 Zrotation Xrotation Yrotation
                JOINT rMid2
                {
                  OFFSET -3.10165 -0.590103 1.0647
                  CHANNELS 3 Zrotation Xrotation Yrotation
                  End Site
                  {
                    OFFSET -2.48547 -0.328903 0.83742
                  }
                }
              }
              JOINT rRing1
              {
                OFFSET -8.82822 0.546677 1.51678
                CHANNELS 3 Zrotation Xrotation Yrotation
                JOINT rRing2
                {
                  OFFSET -2.60934 -0.819778 -0.0198488
                  CHANNELS 3 Zrotation Xrotation Yrotation
                  End Site
                  {
                    OFFSET -2.33842 -0.294052 0.168128
                  }
                }
              }
              JOINT rPinky1
              {
                OFFSET -8.27202 -0.0477905 -0.4584
                CHANNELS 3 Zrotation Xrotation Yrotation
                JOINT rPinky2
                {
                  OFFSET -1.82734 -0.647385 -0.700984
                  CHANNELS 3 Zrotation Xrotation Yrotation
                  End Site
                  {
                    OFFSET -1.69225 -0.51767 -0.607171
                  }
                }
              }
            }
          }
        }
      }
      JOINT lCollar
      {
        OFFSET 2.68224 19.2634 -4.8768
        CHANNELS 3 Zrotation Xrotation Yrotation
        JOINT lShldr
        {
          OFFSET 8.77824 -1.95073 1.46304
          CHANNELS 3 Zrotation Xrotation Yrotation
          JOINT lForeArm
          {
            OFFSET 28.1742 -1.7115 0.48768
            CHANNELS 3 Zrotation Xrotation Yrotation
            JOINT lHand
            {
              OFFSET 22.5879 0.773209 7.07136
              CHANNELS 3 Zrotation Xrotation Yrotation
              JOINT lThumb1
              {
                OFFSET 1.2192 -0.487915 3.41376
                CHANNELS 3 Zrotation Xrotation Yrotation
                JOINT lThumb2
                {
                  OFFSET 3.37035 -0.52449 3.41376
                  CHANNELS 3 Zrotation Xrotation Yrotation
                  End Site
                  {
                    OFFSET 1.78271 -1.18214 1.43049
                  }
                }
              }
              JOINT lIndex1
              {
                OFFSET 7.75947 0.938293 5.60832
                CHANNELS 3 Zrotation Xrotation Yrotation
                JOINT lIndex2
                {
                  OFFSET 2.54057 -0.884171 1.56538
                  CHANNELS 3 Zrotation Xrotation Yrotation
                  End Site
                  {
                    OFFSET 1.62519 -0.234802 1.16502
                  }
                }
              }
              JOINT lMid1
              {
                OFFSET 8.24714 1.18213 3.41376
                CHANNELS 3 Zrotation Xrotation Yrotation
                JOINT lMid2
                {
                  OFFSET 3.10165 -0.590103 1.0647
                  CHANNELS 3 Zrotation Xrotation Yrotation
                  End Site
                  {
                    OFFSET 2.48547 -0.328903 0.83742
                  }
                }
              }
              JOINT lRing1
              {
                OFFSET 8.82822 0.546677 1.51678
                CHANNELS 3 Zrotation Xrotation Yrotation
                JOINT lRing2
                {
                  OFFSET 2.60934 -0.819778 -0.0198488
                  CHANNELS 3 Zrotation Xrotation Yrotation
                  End Site
                  {
                    OFFSET 2.33842 -0.294052 0.168128
                  }
                }
              }
              JOINT lPinky1
              {
                OFFSET 8.27202 -0.0477905 -0.4584
                CHANNELS 3 Zrotation Xrotation Yrotation
                JOINT lPinky2
                {
                  OFFSET 1.82734 -0.647385 -0.700984
                  CHANNELS 3 Zrotation Xrotation Yrotation
                  End Site
                  {
                    OFFSET 1.69225 -0.51767 -0.607171
                  }
                }
              }
            }
          }
        }
      }
    }
  }
  JOINT rButtock
  {
    OFFSET -8.77824 4.35084 1.2192
    CHANNELS 3 Zrotation Xrotation Yrotation
    JOINT rThigh
    {
      OFFSET 0 -1.70687 -2.19456
      CHANNELS 3 Zrotation Xrotation Yrotation
      JOINT rShin
      {
        OFFSET 0 -36.8199 0.73152
        CHANNELS 3 Zrotation Xrotation Yrotation
        JOINT rFoot
        {
          OFFSET 0.73152 -45.1104 -5.12064
          CHANNELS 3 Zrotation Xrotation Yrotation
          End Site
          {
            OFFSET -1.1221 -3.69964 12.103
          }
        }
      }
    }
  }
  JOINT lButtock
  {
    OFFSET 8.77824 4.35084 1.2192
    CHANNELS 3 Zrotation Xrotation Yrotation
    JOINT lThigh
    {
      OFFSET 0 -1.70687 -2.19456
      CHANNELS 3 Zrotation Xrotation Yrotation
      JOINT lShin
      {
        OFFSET 0 -36.8199 0.73152
        CHANNELS 3 Zrotation Xrotation Yrotation
        JOINT lFoot
        {
          OFFSET -0.73152 -45.1104 -5.12064
          CHANNELS 3 Zrotation Xrotation Yrotation
          End Site
          {
            OFFSET 1.1221 -3.69964 12.103
          }
        }
      }
    }
  }
}
MOTION
Frames:	5
Frame Time:	0.00833333
256.462 84.7658 33.876 0.292817 -0.000579797 -0.00500382 -0.385197 -0.00168813 -0.0109959 -0.106234 -0.00256712 -0.0184049 3.28674e-015 -1.59028e-015 -3.10601e-017 9.77461e-015 3.18055e-015 -9.00743e-017 -0 0 0 -0 0 0 1.63868e-015 -4.27076e-018 1.49089e-016 3.65637e-014 -2.98177e-016 5.96354e-016 5.9705e-013 -1.78707e-013 -1.90833e-014 6.79158e-012 1.65737e-013 -5.40694e-014 1.60273e-011 -2.61713e-014 -1.33583e-013 2.76768e-011 -5.08889e-014 -2.36156e-013 1.60336e-011 -2.38542e-014 -1.39944e-013 7.73091 5.47488 0.417314 1.60303e-011 -2.5345e-014 -1.36764e-013 2.90554 0.965183 0.102902 1.60413e-011 -2.5345e-014 -1.35969e-013 10.2786 0.731801 0.0259123 1.60292e-011 -2.74323e-014 -1.27222e-013 2.22167 -0.733487 -0.20892 1.64138e-015 -4.46489e-018 -1.49089e-016 3.18402e-014 -2.11209e-016 -9.93923e-016 5.91981e-013 1.7334e-013 0 6.79672e-012 -1.98387e-013 -5.40694e-014 1.6029e-011 -5.18743e-014 -1.33583e-013 2.76879e-011 -8.5875e-014 -2.3059e-013 1.6022e-011 -4.6118e-014 -1.20861e-013 -7.73091 5.47488 -0.417314 1.60291e-011 -5.17834e-014 -1.33583e-013 -2.90554 0.965183 -0.102902 1.60213e-011 -5.15846e-014 -1.35174e-013 -10.2786 0.731801 -0.0259123 1.60304e-011 -5.12864e-014 -1.43125e-013 -2.22167 -0.733487 0.20892 -2.03217e-016 0 -3.88251e-019 0.221652 -2.58356 -0.028081 -0.0074896 -0.872631 -0.0651402 -0.513113 3.45577 0.129347 2.03217e-016 0 3.88251e-019 -0.807773 -4.07085 0.0653912 0.00325574 1.82139 0.0244318 0.517709 2.24911 -0.10518 
251.901 83.5367 26.8416 -8.13401 15.4313 -23.3427 1.20304 -1.10349 0.317165 0.528723 -0.187082 0.0431085 -1.2477 -1.21941 -0.566306 1.31423 -1.17638 -0.645378 -0 0 0 -0 0 0 -6.06127e-014 -1.10718e-012 -5.35166e-014 21.2951 1.03627 -0.466741 -3.3219 -1.36611 5.33387 0.0487611 4.90529 0.680323 7.33271e-010 1.37579e-010 5.14078e-010 1.27291e-009 2.47995e-010 8.76168e-010 7.33278e-010 1.37582e-010 5.14069e-010 7.73091 5.47488 0.417314 7.33274e-010 1.37579e-010 5.14074e-010 2.90554 0.965183 0.102902 7.33282e-010 1.3758e-010 5.14075e-010 10.2786 0.731801 0.0259123 7.33271e-010 1.37578e-010 5.14086e-010 2.22167 -0.733487 -0.20892 -6.06305e-014 -1.10718e-012 -5.37887e-014 -23.4467 -4.84039 1.03541 2.27281 -0.816388 -3.75018 -0.404811 14.1969 -1.78114 5.9875e-010 2.87397e-010 8.59312e-010 1.0668e-009 4.81318e-010 1.45675e-009 5.98744e-010 2.87402e-010 8.59321e-010 -7.73091 5.47488 -0.417314 5.98751e-010 2.87397e-010 8.59311e-010 -2.90554 0.965183 -0.102902 5.98743e-010 2.87397e-010 8.5931e-010 -10.2786 0.731801 -0.0259123 5.98752e-010 2.87398e-010 8.59302e-010 -2.22167 -0.733487 0.20892 -2.03217e-016 0 -3.88251e-019 2.42476 -5.93451 -0.34085 -0.00519839 4.16796 0.0342813 -0.819279 0.4316 -4.16753 2.03217e-016 0 3.88251e-019 1.71355 -7.02607 -1.33531 -0.00735146 6.03148 -0.0474906 0.583278 -0.712692 1.19829 
251.958 83.4824 26.8066 -4.21849 23.0357 -51.6353 2.90218 -2.24998 0.662022 1.19937 -0.385993 0.107686 -2.56811 -2.49599 -1.16892 2.60803 -2.45363 -1.34354 -0 0 0 -0 0 0 -1.29608e-013 -2.32242e-012 -1.15519e-013 43.8215 2.09389 -0.968277 -6.54743 -2.76402 10.9649 -0.0283334 10.1109 1.41944 1.5645e-009 3.23252e-010 1.04784e-009 2.71526e-009 5.80393e-010 1.78451e-009 1.5645e-009 3.23255e-010 1.04782e-009 7.73091 5.47488 0.417314 1.5645e-009 3.23251e-010 1.04783e-009 2.90554 0.965183 0.102902 1.5645e-009 3.23252e-010 1.04783e-009 10.2786 0.731801 0.0259123 1.56449e-009 3.2325e-010 1.04784e-009 2.22167 -0.733487 -0.20892 -1.29647e-013 -2.32242e-012 -1.15764e-013 -48.034 -9.98921 2.18121 4.55948 -1.66773 -7.71696 0.253182 29.1659 -4.06957 1.2108e-009 6.34223e-010 1.84878e-009 2.16185e-009 1.06416e-009 3.13652e-009 1.21079e-009 6.34226e-010 1.84878e-009 -7.73091 5.47488 -0.417314 1.2108e-009 6.34223e-010 1.84878e-009 -2.90554 0.965183 -0.102902 1.21079e-009 6.34224e-010 1.84877e-009 -10.2786 0.731801 -0.0259123 1.2108e-009 6.34225e-010 1.84877e-009 -2.22167 -0.733487 0.20892 -2.03217e-016 0 -3.88251e-019 4.71386 -9.46247 -0.678448 -0.0220118 9.49044 0.140878 -1.63267 -2.72139 -8.71683 2.03217e-016 0 3.88251e-019 4.22067 -10.1315 -2.83892 -0.00686362 10.4808 -0.124959 0.797924 -3.82966 2.57371 
251.945 83.4111 26.7661 3.28579 17.2076 -75.0469 4.41743 -3.30665 0.974933 1.79982 -0.556109 0.166142 -3.81553 -3.6568 -1.702 3.86308 -3.52734 -1.9394 -0 0 0 -0 0 0 -1.85116e-013 -3.32155e-012 -1.60848e-013 63.9359 3.108 -1.40206 -9.21212 -3.9565 16.0363 -0.213178 14.7074 2.10241 2.16776e-009 4.1279e-010 1.5425e-009 3.76339e-009 7.44086e-010 2.62898e-009 2.16777e-009 4.12794e-010 1.54249e-009 7.73091 5.47488 0.417314 2.16776e-009 4.12789e-010 1.5425e-009 2.90554 0.965183 0.102902 2.16776e-009 4.12791e-010 1.5425e-009 10.2786 0.731801 0.0259123 2.16775e-009 4.12788e-010 1.54251e-009 2.22167 -0.733487 -0.20892 -1.85174e-013 -3.32154e-012 -1.61068e-013 -69.8008 -14.5019 3.1971 6.49987 -2.40723 -11.2595 2.22244 42.3956 -7.0224 1.76419e-009 8.62295e-010 2.5782e-009 3.14503e-009 1.44413e-009 4.37072e-009 1.76419e-009 8.62297e-010 2.5782e-009 -7.73091 5.47488 -0.417314 1.76419e-009 8.62295e-010 2.5782e-009 -2.90554 0.965183 -0.102902 1.76419e-009 8.62296e-010 2.5782e-009 -10.2786 0.731801 -0.0259123 1.7642e-009 8.62298e-010 2.57819e-009 -2.22167 -0.733487 0.20892 -2.03217e-016 0 -3.88251e-019 6.71873 -12.6349 -0.984816 -0.0542545 14.249 0.240228 -2.78518 -5.47426 -12.8199 2.03217e-016 0 3.88251e-019 6.31283 -12.9084 -4.21296 0.00401171 14.4516 -0.196747 1.12032 -6.62208 3.83039 
251.908 83.3584 26.7221 6.56587 6.8992 -86.1929 5.44769 -4.13912 1.20674 2.22392 -0.65424 0.209288 -4.82983 -4.52959 -2.05843 5.08379 -4.09422 -2.27584 -0 0 0 -0 0 0 -2.06906e-013 -3.78039e-012 -1.64494e-013 77.9856 4.01409 -1.66494 -10.9925 -4.76672 19.6763 -0.404562 17.7895 2.5846 2.20112e-009 2.61995e-010 1.93944e-009 3.82599e-009 4.86017e-010 3.31373e-009 2.20113e-009 2.61999e-010 1.93942e-009 7.73091 5.47488 0.417314 2.20112e-009 2.61993e-010 1.93943e-009 2.90554 0.965183 0.102902 2.20112e-009 2.61996e-010 1.93943e-009 10.2786 0.731801 0.0259123 2.20111e-009 2.61993e-010 1.93945e-009 2.22167 -0.733487 -0.20892 -2.06977e-013 -3.78039e-012 -1.64693e-013 -84.9311 -17.445 3.79336 7.79841 -2.90703 -13.7328 4.90426 51.4503 -10.1584 2.17096e-009 7.93482e-010 2.65753e-009 3.84859e-009 1.31688e-009 4.49101e-009 2.17096e-009 7.93482e-010 2.65753e-009 -7.73091 5.47488 -0.417314 2.17096e-009 7.93481e-010 2.65753e-009 -2.90554 0.965183 -0.102902 2.17096e-009 7.93481e-010 2.65752e-009 -10.2786 0.731801 -0.0259123 2.17096e-009 7.93484e-010 2.65752e-009 -2.22167 -0.733487 0.20892 -2.03217e-016 0 -3.88251e-019 8.09312 -14.9199 -1.19696 -0.0871415 17.5979 0.314253 -3.84133 -7.37551 -15.7326 2.03217e-016 0 3.88251e-019 7.68045 -14.8891 -5.1989 0.0176577 17.226 -0.249357 1.43153 -8.61707 4.76321 
